<svg class = "logosvg" width="83" height="107" viewBox="0 0 83 107" fill="none" xmlns="http://www.w3.org/2000/svg">
<path fill-rule="evenodd" clip-rule="evenodd" d="M2.5 0H0V2.5V65.4791C0 88.1579 18.3848 106.543 41.0636 106.543C63.7424 106.543 82.1273 88.1579 82.1273 65.4791V2.5V0H79.6273H2.5ZM5 9.80924V65.4791C5 85.3964 21.1462 101.543 41.0636 101.543C51.4008 101.543 60.7222 97.1935 67.2977 90.2251L5 9.80924ZM70.546 86.2538C74.6919 80.381 77.1273 73.2144 77.1273 65.4791V5H7.59916L70.546 86.2538ZM62.4869 20.4123C57.3723 20.4123 52.9893 24.8413 52.9893 30.6052C52.9893 36.3691 57.3723 40.798 62.4869 40.798V45.798C54.3493 45.798 47.9893 38.8614 47.9893 30.6052C47.9893 22.349 54.3493 15.4123 62.4869 15.4123V20.4123ZM22.9958 72.3106C22.9958 66.5467 27.3789 62.1178 32.4934 62.1178V57.1178C24.3558 57.1178 17.9958 64.0544 17.9958 72.3106C17.9958 80.5668 24.3558 87.5035 32.4934 87.5035V82.5035C27.3789 82.5035 22.9958 78.0745 22.9958 72.3106Z" fill="#00009C"/>
</svg>
