<svg width="163" height="162" viewBox="0 0 163 162" fill="none" xmlns="http://www.w3.org/2000/svg">
<rect width="162.612" height="161.543" rx="6" fill="#F4F4F4"/>
<path d="M4 103.905L18.0477 94.5218C19.1927 93.757 20.7115 93.8699 21.7308 94.7957L36.4522 108.165C37.0409 108.7 37.8179 108.979 38.6123 108.941L52.7476 108.265C53.9582 108.207 55.0151 107.427 55.4264 106.286L69.6811 66.7685C70.5857 64.2607 74.0676 64.0905 75.2124 66.4982L89.1658 95.8435C89.3837 96.3019 89.7145 96.6975 90.127 96.9933L104.443 107.257C105.786 108.221 107.656 107.915 108.624 106.574L123.903 85.3956C124.131 85.0784 124.42 84.8091 124.752 84.6027L139.599 75.3773C140.785 74.6404 142.322 74.819 143.308 75.8081L159 91.5593" stroke="#90A0C7" stroke-width="2" stroke-linecap="round"/>
<path d="M4 54.2104L17.5511 30.3121C18.6633 28.3507 21.4605 28.2712 22.6822 30.1663L36.8574 52.1536C37.1921 52.6727 37.6788 53.0758 38.2511 53.308L52.4001 59.0479C53.7556 59.5977 55.31 59.0899 56.0794 57.8458L69.581 36.0139C70.5462 34.4532 72.674 34.1171 74.0733 35.3042L88.2743 47.352C89.0389 48.0007 90.077 48.2245 91.041 47.9484L106.874 43.4146L122.503 37.4471C123.572 37.039 124.78 37.2743 125.617 38.0537L140.038 51.4744C140.985 52.3559 142.391 52.5308 143.525 51.9082L159 43.4146" stroke="#D990BF" stroke-width="2" stroke-linecap="round"/>
<path d="M3 154.523L16.9495 129.371C18.0478 127.391 20.8603 127.295 22.0912 129.196L36.3118 151.155C36.6473 151.673 37.1343 152.075 37.7065 152.306L51.9404 158.055C53.293 158.601 54.8425 158.095 55.6122 156.856L69.1909 134.998C70.1565 133.443 72.2769 133.108 73.6749 134.289L87.9659 146.359C88.7292 147.004 89.7633 147.226 90.7241 146.952L106.64 142.415L122.354 136.442C123.419 136.037 124.622 136.271 125.459 137.045L139.963 150.484C140.909 151.361 142.309 151.535 143.441 150.916L159 142.415" stroke="#F8DC57" stroke-width="2" stroke-linecap="round"/>
<path d="M4 72.5693L19.2363 81.3456C19.6917 81.608 20.2081 81.746 20.7337 81.746H36.5917C37.0168 81.746 37.437 81.8364 37.8246 82.0111L54.2378 89.4103C55.065 89.7832 56.0165 89.7617 56.8259 89.3518L71.4023 81.9712C71.6967 81.8221 71.9645 81.6255 72.1949 81.3892L88.269 64.9055C88.8336 64.3265 89.6081 64 90.4169 64H105.778C106.225 64 106.667 64.0998 107.07 64.2922L122.471 71.638C123.288 72.0276 124.237 72.0276 125.054 71.638L140.455 64.2922C140.858 64.0998 141.299 64 141.746 64H158" stroke="#EE926B" stroke-width="2" stroke-linecap="round"/>
<path d="M3 55H17.7575C18.4543 55 19.1293 54.7575 19.6667 54.3141L37.112 39.9215C37.3831 39.6978 37.6915 39.5235 38.023 39.4065L55.2377 33.3333L70.885 25.4246C71.4319 25.1482 72.0504 25.0459 72.6572 25.1314L88.1214 27.3118C88.9702 27.4315 89.7273 27.9086 90.2016 28.6227L104.34 49.9098C104.896 50.7469 105.834 51.25 106.839 51.25H122.815C123.222 51.25 123.624 51.1672 123.998 51.0068L140.87 43.7648C141.519 43.4861 142.246 43.4455 142.922 43.6502L159 48.5156" stroke="#AED365" stroke-width="2" stroke-linecap="round"/>
</svg>
